# xmcd
# Copyright (C) 1995-1998 Ti Kan
#
# Track frame offsets:
#       150
#       21755
#       42422
#
# Disc length: 794 seconds
#
# Revision: 0
# Processed by: cddbd v1.4PL0 Copyright (c) Steve Scherf et al.
# Submitted via: CD-Transfer v1.0
#
DISCID=1d031803
DTITLE=Frida and Dan Daniell - 
DYEAR=2003
DGENRE=
TTITLE0=Lieber Gott
TTITLE1=I Have A Dream
TTITLE2=Wenn Ich Dann Gehen Muss
EXTD=
EXTT0=
EXTT1=
EXTT2=
PLAYORDER=
